<svg xmlns="http://www.w3.org/2000/svg" width="467" height="1000" fill="none" viewBox="0 0 467 1000"><path fill="#3091C2" d="M219.396 514.148L198.616 500.063L219.396 485.977V514.148Z"/><path fill="#3091C2" d="M266.945 500.063L246.617 513.838V486.281L266.945 500.063Z"/><path fill="#3091C2" d="M280.629 472.238L260.301 458.457L280.629 444.681V472.238Z"/><path fill="#3091C2" d="M267.625 416.851L246.277 431.323V402.384L267.625 416.851Z"/><path fill="#3091C2" d="M219.797 431.752L197.814 416.851L219.797 401.955V431.752Z"/><path fill="#3091C2" d="M206.448 458.457L184.785 473.138V443.776L206.448 458.457Z"/><path fill="#3091C2" d="M206.422 541.662L184.795 556.325V527.005L206.422 541.662Z"/><path fill="#3091C2" d="M280.923 556.034L259.722 541.662L280.923 527.297V556.034Z"/><path fill="#3091C2" d="M328.315 458.457L308.012 472.214V444.699L328.315 458.457Z"/><path fill="#3091C2" d="M281.258 390.301L259.052 375.245L281.258 360.201V390.301Z"/><path fill="#3091C2" d="M207.026 375.245L184.495 390.522V359.98L207.026 375.245Z"/><path fill="#3091C2" d="M158.518 473.579L136.211 458.457L158.518 443.341V473.579Z"/><path fill="#3091C2" d="M220.071 598.736L197.256 583.268L220.071 567.801V598.736Z"/><path fill="#3091C2" d="M267.934 583.268L246.124 598.05V568.492L267.934 583.268Z"/><path fill="#3091C2" d="M328.685 541.662L307.829 555.795V527.536L328.685 541.662Z"/><path fill="#3091C2" d="M342.263 514.338L321.198 500.063L342.263 485.781V514.338Z"/><path fill="#3091C2" d="M342.359 431.329L321.001 416.851L342.359 402.378V431.329Z"/><path fill="#3091C2" d="M329.396 375.245L307.469 390.111V360.391L329.396 375.245Z"/><path fill="#3091C2" d="M269.721 333.645L245.226 350.245V317.04L269.721 333.645Z"/><path fill="#3091C2" d="M220.776 350.531L195.855 333.645L220.776 316.754V350.531Z"/><path fill="#3091C2" d="M158.518 390.367L136.211 375.245L158.518 360.135V390.367Z"/><path fill="#3091C2" d="M145.494 416.851L123.181 431.979V401.729L145.494 416.851Z"/><path fill="#3091C2" d="M145.322 500.063L123.263 515.006V485.114L145.322 500.063Z"/><path fill="#3091C2" d="M158.346 556.439L136.546 541.662L158.346 526.892V556.439Z"/><path fill="#3091C2" d="M158.99 640.967L135.246 624.874L158.99 608.781V640.967Z"/><path fill="#3091C2" d="M207.935 624.874L184.039 641.068V608.68L207.935 624.874Z"/><path fill="#3091C2" d="M280.979 639.358L259.6 624.874L280.979 610.39V639.358Z"/><path fill="#3091C2" d="M327.822 624.874L308.255 638.131V611.611L327.822 624.874Z"/><path fill="#3091C2" d="M342.202 597.431L321.315 583.268L342.202 569.112V597.431Z"/><path fill="#3091C2" d="M390.928 500.063L368.788 515.065V485.054L390.928 500.063Z"/><path fill="#EDE51C" d="M403.952 473.346L381.98 458.457L403.952 443.567V473.346Z"/><path fill="#3091C2" d="M390.71 416.851L368.895 431.639V402.063L390.71 416.851Z"/><path fill="#3091C2" d="M342.729 348.868L320.265 333.645L342.729 318.422V348.868Z"/><path fill="#3091C2" d="M330.116 292.039L307.108 307.638V276.447L330.116 292.039Z"/><path fill="#3091C2" d="M282.349 309.318L256.859 292.039L282.349 274.767V309.318Z"/><path fill="#3091C2" d="M210.016 292.039L182.998 310.355V273.73L210.016 292.039Z"/><path fill="#3091C2" d="M159.549 309.27L134.135 292.039L159.549 274.814V309.27Z"/><path fill="#3091C2" d="M146.098 333.645L122.877 349.387V317.91L146.098 333.645Z"/><path fill="#3091C2" d="M97.2243 432.169L74.6274 416.851L97.2243 401.538V432.169Z"/><path fill="#3091C2" d="M84.9617 458.457L61.3649 474.448V442.465L84.9617 458.457Z"/><path fill="#3091C2" d="M97.1432 515.202L74.795 500.063L97.1432 484.917V515.202Z"/><path fill="#3091C2" d="M146.2 583.268L122.826 599.111V567.431L146.2 583.268Z"/><path fill="#3091C2" d="M146.316 666.48L122.765 682.442V650.518L146.316 666.48Z"/><path fill="#3091C2" d="M220 681.792L197.403 666.48L220 651.162V681.792Z"/><path fill="#3091C2" d="M267.219 666.48L246.479 680.535V652.425L267.219 666.48Z"/><path fill="#3091C2" d="M340.928 678.039L323.868 666.48L340.928 654.915V678.039Z"/><path fill="#3091C2" d="M390.05 583.268L369.224 597.383V569.159L390.05 583.268Z"/><path fill="#3091C2" d="M404.201 557.064L381.477 541.662L404.201 526.266V557.064Z"/><path fill="#3091C2" d="M453.171 458.457L429.742 474.335V442.578L453.171 458.457Z"/><path fill="#3091C2" d="M403.952 390.14L381.98 375.245L403.952 360.361V390.14Z"/><path fill="#3091C2" d="M390.593 333.645L368.95 348.314V318.976L390.593 333.645Z"/><path fill="#3091C2" d="M342.156 264.501L321.407 250.433L342.156 236.378V264.501Z"/><path fill="#3091C2" d="M271.01 250.433L244.581 268.35V232.523L271.01 250.433Z"/><path fill="#3091C2" d="M221.649 269.094L194.114 250.433L221.649 231.773V269.094Z"/><path fill="#3091C2" d="M147.25 250.433L122.303 267.349V233.53L147.25 250.433Z"/><path fill="#3091C2" d="M97.1432 348.785L74.795 333.645L97.1432 318.505V348.785Z"/><path fill="#3091C2" d="M83.9872 375.245L61.8522 390.248V360.248L83.9872 375.245Z"/><path fill="#3091C2" d="M36.7123 475.551L11.4913 458.457L36.7123 441.363V475.551Z"/><path fill="#3091C2" d="M83.9872 541.662L61.8522 556.665V526.666L83.9872 541.662Z"/><path fill="#3091C2" d="M97.1889 598.509L74.6986 583.268L97.1889 568.027V598.509Z"/><path fill="#3091C2" d="M158.442 723.053L136.353 708.086L158.442 693.113V723.053Z"/><path fill="#3091C2" d="M206.519 708.086L184.744 722.838V693.333L206.519 708.086Z"/><path fill="#3091C2" d="M279.7 719.966L262.163 708.086L279.7 696.199V719.966Z"/><path fill="#3091C2" d="M324.604 708.086L309.87 718.078V698.088L324.604 708.086Z"/><path fill="#3091C2" d="M387.263 666.48L370.615 677.759V655.195L387.263 666.48Z"/><path fill="#EDE51C" d="M403.176 638.191L383.533 624.874L403.176 611.558V638.191Z"/><path fill="#3091C2" d="M454.201 541.662L429.229 558.584V524.747L454.201 541.662Z"/><path fill="#EDE51C" d="M466.794 517.907L440.467 500.063L466.794 482.224V517.907Z"/><path fill="#EDE51C" d="M465.926 432.938L442.192 416.851L465.926 400.77V432.938Z"/><path fill="#3091C2" d="M452.445 375.245L430.107 390.385V360.117L452.445 375.245Z"/><path fill="#EDE51C" d="M403.181 305.362L383.528 292.039L403.181 278.723V305.362Z"/><path fill="#3091C2" d="M388.263 250.433L370.118 262.737V238.142L388.263 250.433Z"/><path fill="#3091C2" d="M327.31 208.834L308.514 221.572V196.095L327.31 208.834Z"/><path fill="#3091C2" d="M281.339 224.051L258.884 208.834L281.339 193.616V224.051Z"/><path fill="#3091C2" d="M209.026 208.834L183.49 226.136V191.531L209.026 208.834Z"/><path fill="#3091C2" d="M159.153 225.254L134.927 208.834L159.153 192.407V225.254Z"/><path fill="#3091C2" d="M97.1788 265.657L74.724 250.433L97.1788 235.216V265.657Z"/><path fill="#3091C2" d="M83.8146 292.039L61.9385 306.869V277.215L83.8146 292.039Z"/><path fill="#3091C2" d="M36.083 391.07L12.7501 375.245L36.083 359.432V391.07Z"/><path fill="#3091C2" d="M0 399.787V433.915L25.1753 416.851L0 399.787Z"/><path fill="#3091C2" d="M0 483.177V516.948L24.9165 500.063L0 483.177Z"/><path fill="#3091C2" d="M35.9561 557.231L12.9938 541.662L35.9561 526.106V557.231Z"/><path fill="#3091C2" d="M83.7181 624.874L61.9891 639.603V610.151L83.7181 624.874Z"/><path fill="#3091C2" d="M96.9808 681.304L75.1097 666.48L96.9808 651.65V681.304Z"/><path fill="#EDE51C" d="M95.6611 761.822L77.7542 749.686L95.6611 737.555V761.822Z"/><path fill="#3091C2" d="M143.636 749.686L124.105 762.925V736.453L143.636 749.686Z"/><path fill="#EDE51C" d="M218.609 762.174L200.179 749.686L218.609 737.197V762.174Z"/><path fill="#3091C2" d="M263.97 749.686L248.099 760.44V738.937L263.97 749.686Z"/><path fill="#3091C2" d="M338.664 756.651L328.396 749.686L338.664 742.721V756.651Z"/><path fill="#3091C2" d="M382.198 749.686L373.153 755.823V743.555L382.198 749.686Z"/><path fill="#3091C2" d="M401.095 717.166L387.69 708.086L401.095 699V717.166Z"/><path fill="#3091C2" d="M451.953 624.874L430.356 639.507V610.241L451.953 624.874Z"/><path fill="#EDE51C" d="M466.429 600.368L441.192 583.268L466.429 566.174V600.368Z"/><path fill="#EDE51C" d="M464.911 347.677L444.217 333.645L464.911 319.614V347.677Z"/><path fill="#3091C2" d="M449.593 292.039L431.539 304.283V279.801L449.593 292.039Z"/><path fill="#3091C2" d="M401.029 217.771L387.832 208.834L401.029 199.89V217.771Z"/><path fill="#3091C2" d="M382.589 167.228L372.955 173.758V160.704L382.589 167.228Z"/><path fill="#3091C2" d="M339.263 175.414L327.193 167.228L339.263 159.041V175.414Z"/><path fill="#3091C2" d="M265.853 167.228L247.16 179.901V154.555L265.853 167.228Z"/><path fill="#3091C2" d="M219.452 181.432L198.494 167.228L219.452 153.023V181.432Z"/><path fill="#3091C2" d="M144.261 167.228L123.796 181.098V153.363L144.261 167.228Z"/><path fill="#3091C2" d="M95.7525 179.555L77.5664 167.228L95.7525 154.9V179.555Z"/><path fill="#3091C2" d="M82.1802 208.834L62.7505 222.001V195.66L82.1802 208.834Z"/><path fill="#3091C2" d="M35.1592 305.981L14.5977 292.039L35.1592 278.103V305.981Z"/><path fill="#3091C2" d="M22.739 333.645L0.395874 348.791V318.5L22.739 333.645Z"/><path fill="#3091C2" d="M22.739 583.268L0.395874 598.414V568.129L22.739 583.268Z"/><path fill="#3091C2" d="M35.2403 638.977L14.4301 624.874L35.2403 610.771V638.977Z"/><path fill="#3091C2" d="M81.764 708.086L62.9637 720.824V695.341L81.764 708.086Z"/><path fill="#3091C2" d="M77.8709 791.291L64.9076 800.074V782.515L77.8709 791.291Z"/><path fill="#3091C2" d="M156.097 801.486L141.053 791.291L156.097 781.097V801.486Z"/><path fill="#3091C2" d="M201.839 791.292L187.089 801.289V781.3L201.839 791.292Z"/><path fill="#EDE51C" d="M277.355 798.4L266.858 791.292L277.355 784.178V798.4Z"/><path fill="#3091C2" d="M320.097 791.292L312.118 796.696V785.888L320.097 791.292Z"/><path fill="#3091C2" d="M398.724 795.558L392.441 791.292L398.724 787.025V795.558Z"/><path fill="#3091C2" d="M447.268 708.086L432.696 717.952V698.207L447.268 708.086Z"/><path fill="#3091C2" d="M464.815 680.297L444.42 666.48L464.815 652.657V680.297Z"/><path fill="#EDE51C" d="M462.744 260.05L448.552 250.433L462.744 240.823V260.05Z"/><path fill="#3091C2" d="M445.065 208.834L433.802 216.472V201.195L445.065 208.834Z"/><path fill="#3091C2" d="M398.09 128.589L393.715 125.628L398.09 122.667V128.589Z"/><path fill="#3091C2" d="M320.072 125.628L312.138 130.996V120.248L320.072 125.628Z"/><path fill="#3091C2" d="M277.39 132.831L266.772 125.628L277.39 118.424V132.831Z"/><path fill="#3091C2" d="M201.91 125.628L187.049 135.703V115.553L201.91 125.628Z"/><path fill="#3091C2" d="M156.062 135.757L141.109 125.628L156.062 115.487V135.757Z"/><path fill="#3091C2" d="M77.1705 125.628L65.2579 133.695V117.549L77.1705 125.628Z"/><path fill="#3091C2" d="M33.8344 220.071L17.2522 208.834L33.8344 197.59V220.071Z"/><path fill="#3091C2" d="M19.8814 250.433L1.82214 262.677V238.195L19.8814 250.433Z"/><path fill="#3091C2" d="M20.3077 666.48L1.60889 679.147V653.807L20.3077 666.48Z"/><path fill="#3091C2" d="M33.9916 719.651L16.9272 708.086L33.9916 696.515V719.651Z"/><path fill="#3091C2" d="M92.7325 839.082L83.6064 832.897L92.7325 826.713V839.082Z"/><path fill="#3091C2" d="M137.023 832.897L127.415 839.404V826.385L137.023 832.897Z"/><path fill="#3091C2" d="M215.427 838.921L206.544 832.897L215.427 826.874V838.921Z"/><path fill="#3091C2" d="M258.275 832.897L250.951 837.861V827.934L258.275 832.897Z"/><path fill="#3091C2" d="M336.842 836.145L332.045 832.897L336.842 829.644V836.145Z"/><path fill="#3091C2" d="M379.021 832.897L374.737 835.799V829.996L379.021 832.897Z"/><path fill="#3091C2" d="M442.015 791.291L435.325 795.82V786.757L442.015 791.291Z"/><path fill="#3091C2" d="M461.551 756.871L450.948 749.686L461.551 742.5V756.871Z"/><path fill="#3091C2" d="M460.069 171.398L453.912 167.228L460.069 163.057V171.398Z"/><path fill="#3091C2" d="M439.812 125.628L436.426 127.916V123.334L439.812 125.628Z"/><path fill="#3091C2" d="M377.462 84.022L375.518 85.3447V82.6993L377.462 84.022Z"/><path fill="#3091C2" d="M336.187 85.9345L333.355 84.022L336.187 82.1035V85.9345Z"/><path fill="#3091C2" d="M257.413 84.022L251.383 88.1093V79.9347L257.413 84.022Z"/><path fill="#3091C2" d="M215.031 89.2294L207.341 84.022L215.031 78.8145V89.2294Z"/><path fill="#3091C2" d="M136.343 84.022L127.755 89.8371V78.1949L136.343 84.022Z"/><path fill="#3091C2" d="M92.2755 89.2771L84.5199 84.022L92.2755 78.7669V89.2771Z"/><path fill="#3091C2" d="M31.3472 131.806L22.2212 125.628L31.3472 119.437V131.806Z"/><path fill="#3091C2" d="M15.6026 167.228L3.96411 175.116V159.339L15.6026 167.228Z"/><path fill="#3091C2" d="M17.0341 749.686L3.24854 759.034V740.337L17.0341 749.686Z"/><path fill="#3091C2" d="M32.0934 798.989L20.734 791.292L32.0934 783.588V798.989Z"/><path fill="#3091C2" d="M29.6724 877.28L25.5662 874.503L29.6724 871.721V877.28Z"/><path fill="#3091C2" d="M72.44 874.503L67.6232 877.762V871.238L72.44 874.503Z"/><path fill="#3091C2" d="M152.798 877.989L147.646 874.503L152.798 871.006V877.989Z"/><path fill="#3091C2" d="M195.439 874.503L190.287 877.989V871.006L195.439 874.503Z"/><path fill="#3091C2" d="M275.117 877.077L271.325 874.503L275.117 871.929V877.077Z"/><path fill="#3091C2" d="M316.996 874.503L313.666 876.755V872.245L316.996 874.503Z"/><path fill="#3091C2" d="M397.552 876.38L394.781 874.503L397.552 872.62V876.38Z"/><path fill="#3091C2" d="M439.588 874.503L436.533 876.565V872.43L439.588 874.503Z"/><path fill="#3091C2" d="M459.734 836.389L454.587 832.897L459.734 829.406V836.389Z"/><path fill="#3091C2" d="M458.353 84.7012L457.348 84.022L458.353 83.3368V84.7012Z"/><path fill="#3091C2" d="M315.443 42.4161L314.448 43.0894V41.7429L315.443 42.4161Z"/><path fill="#3091C2" d="M274.447 43.6137L272.68 42.4161L274.447 41.2245V43.6137Z"/><path fill="#3091C2" d="M194.292 42.4161L190.86 44.7398V40.0984L194.292 42.4161Z"/><path fill="#3091C2" d="M152.331 44.9603L148.575 42.4161L152.331 39.878V44.9603Z"/><path fill="#3091C2" d="M71.2675 42.4161L68.2119 44.4836V40.3487L71.2675 42.4161Z"/><path fill="#3091C2" d="M29.0177 43.8699L26.8757 42.4161L29.0177 40.9624V43.8699Z"/><path fill="#3091C2" d="M10.6793 84.022L6.42078 86.9117V81.1323L10.6793 84.022Z"/><path fill="#3091C2" d="M12.4049 832.897L5.56287 837.533V828.256L12.4049 832.897Z"/><path fill="#3091C2" d="M8.95854 916.103L7.28357 917.241V914.965L8.95854 916.103Z"/><path fill="#3091C2" d="M90.5703 917.89L87.9259 916.103L90.5703 914.31V917.89Z"/><path fill="#3091C2" d="M132.379 916.103L129.734 917.89V914.31L132.379 916.103Z"/><path fill="#3091C2" d="M213.346 917.89L210.701 916.103L213.346 914.31V917.89Z"/><path fill="#3091C2" d="M254.986 916.103L252.596 917.724V914.488L254.986 916.103Z"/><path fill="#3091C2" d="M335.953 917.551L333.812 916.103L335.953 914.655V917.551Z"/><path fill="#3091C2" d="M377.437 916.103L375.528 917.396V914.804L377.437 916.103Z"/><path fill="#3091C2" d="M458.693 917.474L456.668 916.103L458.693 914.733V917.474Z"/><path fill="#3091C2" d="M131.409 0.81031L130.221 1.62062V0L131.409 0.81031Z"/><path fill="#3091C2" d="M90.0627 1.56103L88.9613 0.810303L90.0627 0.0655327V1.56103Z"/><path fill="#3091C2" d="M28.6419 958.388L27.637 957.703L28.6419 957.03V958.388Z"/><path fill="#3091C2" d="M70.1559 957.703L68.7703 958.644V956.768L70.1559 957.703Z"/><path fill="#3091C2" d="M151.483 958.513L150.28 957.703L151.483 956.899V958.513Z"/><path fill="#3091C2" d="M192.86 957.703L191.576 958.579V956.833L192.86 957.703Z"/><path fill="#3091C2" d="M274.284 958.579L272.99 957.703L274.284 956.833V958.579Z"/><path fill="#3091C2" d="M315.783 957.703L314.28 958.734V956.684L315.783 957.703Z"/><path fill="#3091C2" d="M397.085 958.638L395.714 957.703L397.085 956.779V958.638Z"/><path fill="#3091C2" d="M438.431 957.703L437.117 958.597V956.815L438.431 957.703Z"/><path fill="#3091C2" d="M335.588 1000L334.563 999.309L335.588 998.624V1000Z"/><path fill="#3091C2" d="M376.807 999.309L375.848 999.964V998.659L376.807 999.309Z"/><path fill="#3091C2" d="M458.323 999.94L457.404 999.309L458.323 998.683V999.94Z"/></svg>