<svg width="23" height="22" viewBox="0 0 23 22" fill="none" xmlns="http://www.w3.org/2000/svg">
<path d="M22.1079 10.8291L12.0518 0.780269C11.9794 0.70772 11.8933 0.650163 11.7987 0.610892C11.704 0.571621 11.6025 0.551407 11.5 0.551407C11.3975 0.551407 11.296 0.571621 11.2013 0.610892C11.1067 0.650163 11.0206 0.70772 10.9482 0.780269L0.89209 10.8291C0.599121 11.1221 0.433105 11.52 0.433105 11.9351C0.433105 12.7969 1.13379 13.4976 1.99561 13.4976H3.05518V20.668C3.05518 21.1001 3.4043 21.4492 3.83643 21.4492H9.9375V15.9805H12.6719V21.4492H19.1636C19.5957 21.4492 19.9448 21.1001 19.9448 20.668V13.4976H21.0044C21.4194 13.4976 21.8174 13.334 22.1104 13.0386C22.7183 12.4282 22.7183 11.4394 22.1079 10.8291Z" fill="#B3B3B3"/>
</svg>
