<svg width="25" height="26" viewBox="0 0 25 26" fill="none" xmlns="http://www.w3.org/2000/svg">
<path d="M12.5 0.5C14.7678 0.5 16.8593 1.05881 18.7744 2.17643C20.6896 3.29405 22.2059 4.81044 23.3236 6.72559C24.4412 8.64073 25 10.7322 25 13C25 15.2678 24.4412 17.3593 23.3236 19.2744C22.2059 21.1896 20.6896 22.7059 18.7744 23.8236C16.8593 24.9412 14.7678 25.5 12.5 25.5C10.2322 25.5 8.14073 24.9412 6.22559 23.8236C4.31044 22.7059 2.79405 21.1896 1.67643 19.2744C0.558811 17.3593 0 15.2678 0 13C0 10.7322 0.558811 8.64073 1.67643 6.72559C2.79405 4.81044 4.31044 3.29405 6.22559 2.17643C8.14073 1.05881 10.2322 0.5 12.5 0.5ZM16.9596 8.97982C16.9379 8.99067 16.8864 9.04221 16.805 9.13444C16.7236 9.22667 16.6504 9.27821 16.5853 9.28906C16.607 9.28906 16.6314 9.26194 16.6585 9.20768C16.6857 9.15343 16.7128 9.09375 16.7399 9.02865C16.767 8.96354 16.786 8.92556 16.7969 8.91471C16.862 8.83876 16.9813 8.75738 17.1549 8.67057C17.3069 8.60547 17.589 8.54036 18.0013 8.47526C18.3702 8.38845 18.6469 8.44813 18.8314 8.6543C18.8097 8.6326 18.8612 8.56207 18.986 8.44271C19.1108 8.32335 19.1895 8.25825 19.222 8.2474C19.2546 8.22569 19.3359 8.20128 19.4661 8.17415C19.5964 8.14703 19.6777 8.10634 19.7103 8.05208L19.7428 7.69401C19.6126 7.70486 19.5177 7.66688 19.458 7.58008C19.3983 7.49327 19.3631 7.37934 19.3522 7.23828C19.3522 7.25998 19.3197 7.30339 19.2546 7.36849C19.2546 7.29253 19.2301 7.24913 19.1813 7.23828C19.1325 7.22743 19.0701 7.23286 18.9941 7.25456C18.9182 7.27626 18.8694 7.28168 18.8477 7.27083C18.7391 7.23828 18.6578 7.19759 18.6035 7.14876C18.5493 7.09993 18.5059 7.01042 18.4733 6.88021C18.4408 6.75 18.4191 6.66862 18.4082 6.63607C18.3865 6.58181 18.335 6.52214 18.2536 6.45703C18.1722 6.39193 18.1207 6.33767 18.099 6.29427C18.0881 6.27257 18.0745 6.24273 18.0583 6.20475C18.042 6.16677 18.0257 6.13151 18.0094 6.09896C17.9932 6.06641 17.9715 6.03657 17.9443 6.00944C17.9172 5.98231 17.8874 5.96875 17.8548 5.96875C17.8223 5.96875 17.7843 5.99588 17.7409 6.05013C17.6975 6.10438 17.6568 6.15864 17.6188 6.21289C17.5808 6.26714 17.5564 6.29427 17.5456 6.29427C17.513 6.27257 17.4805 6.26443 17.4479 6.26986C17.4154 6.27528 17.3909 6.28071 17.3747 6.28613C17.3584 6.29156 17.334 6.30783 17.3014 6.33496C17.2689 6.36209 17.2418 6.38108 17.2201 6.39193C17.1875 6.41363 17.1414 6.4299 17.0817 6.44075C17.022 6.45161 16.9759 6.46246 16.9434 6.47331C17.1061 6.41905 17.1007 6.35938 16.9271 6.29427C16.8186 6.25087 16.7318 6.23459 16.6667 6.24544C16.7643 6.20204 16.805 6.13694 16.7887 6.05013C16.7725 5.96332 16.7263 5.88737 16.6504 5.82227H16.7318C16.7209 5.77886 16.6748 5.73275 16.5934 5.68392C16.512 5.63509 16.4171 5.58898 16.3086 5.54557C16.2001 5.50217 16.1296 5.46962 16.097 5.44792C16.0102 5.39366 15.8257 5.34212 15.5436 5.29329C15.2615 5.24447 15.0825 5.24175 15.0065 5.28516C14.9523 5.35026 14.9278 5.40723 14.9333 5.45605C14.9387 5.50488 14.9604 5.58084 14.9984 5.68392C15.0363 5.787 15.0553 5.85482 15.0553 5.88737C15.0662 5.95247 15.0363 6.023 14.9658 6.09896C14.8953 6.17491 14.86 6.24002 14.86 6.29427C14.86 6.37023 14.936 6.45432 15.0879 6.54655C15.2398 6.63878 15.2941 6.75542 15.2507 6.89648C15.2181 6.98329 15.1313 7.0701 14.9902 7.1569C14.8492 7.24371 14.7624 7.30881 14.7298 7.35221C14.6756 7.43902 14.6674 7.53939 14.7054 7.65332C14.7434 7.76725 14.8003 7.85677 14.8763 7.92187C14.898 7.94358 14.9061 7.96528 14.9007 7.98698C14.8953 8.00868 14.8763 8.03309 14.8437 8.06022C14.8112 8.08735 14.7814 8.10905 14.7542 8.12533C14.7271 8.1416 14.6918 8.16059 14.6484 8.18229L14.5996 8.21484C14.4803 8.2691 14.369 8.23654 14.266 8.11719C14.1629 7.99783 14.0896 7.85677 14.0462 7.69401C13.9703 7.42274 13.8835 7.25998 13.7858 7.20573C13.5362 7.11892 13.3789 7.12435 13.3138 7.222C13.2595 7.08095 13.0371 6.93989 12.6465 6.79883C12.3752 6.70117 12.0605 6.67947 11.7025 6.73372C11.7676 6.72287 11.7676 6.64149 11.7025 6.48958C11.6265 6.32682 11.5234 6.26172 11.3932 6.29427C11.4258 6.22917 11.4475 6.13422 11.4583 6.00944C11.4692 5.88466 11.4746 5.81141 11.4746 5.78971C11.5072 5.64865 11.5723 5.52387 11.6699 5.41536C11.6808 5.40451 11.7188 5.3584 11.7839 5.27702C11.849 5.19564 11.9005 5.1224 11.9385 5.05729C11.9765 4.99219 11.9792 4.95964 11.9466 4.95964C12.3264 5.00304 12.5977 4.94336 12.7604 4.7806C12.8147 4.72635 12.8771 4.63411 12.9476 4.50391C13.0181 4.3737 13.0751 4.28147 13.1185 4.22721C13.2161 4.16211 13.2921 4.13227 13.3464 4.1377C13.4006 4.14312 13.4793 4.17296 13.5824 4.22721C13.6854 4.28147 13.7641 4.30859 13.8184 4.30859C13.9703 4.31944 14.0544 4.25977 14.0706 4.12956C14.0869 3.99935 14.0462 3.89084 13.9486 3.80404C14.0788 3.81489 14.0951 3.72266 13.9974 3.52734C13.954 3.45139 13.9106 3.40256 13.8672 3.38086C13.737 3.33746 13.5905 3.36458 13.4277 3.46224C13.3409 3.50564 13.3518 3.54905 13.4603 3.59245C13.4494 3.5816 13.3979 3.63856 13.3057 3.76335C13.2134 3.88813 13.1239 3.98307 13.0371 4.04818C12.9503 4.11328 12.8635 4.08615 12.7767 3.9668C12.7658 3.95595 12.736 3.8827 12.6872 3.74707C12.6383 3.61144 12.5868 3.53819 12.5326 3.52734C12.4457 3.52734 12.3589 3.60872 12.2721 3.77148C12.3047 3.68468 12.245 3.6033 12.0931 3.52734C11.9412 3.45139 11.811 3.40799 11.7025 3.39714C11.9086 3.26693 11.8652 3.12044 11.5723 2.95768C11.4963 2.91428 11.3851 2.88715 11.2386 2.8763C11.0921 2.86545 10.9863 2.88715 10.9212 2.94141C10.867 3.01736 10.8371 3.07975 10.8317 3.12858C10.8263 3.17741 10.8534 3.22081 10.9131 3.25879C10.9728 3.29677 11.0297 3.32661 11.084 3.34831C11.1382 3.37001 11.2006 3.39171 11.2712 3.41341C11.3417 3.43511 11.3878 3.45139 11.4095 3.46224C11.5614 3.57075 11.6048 3.6467 11.5397 3.6901C11.518 3.70095 11.4719 3.71994 11.4014 3.74707C11.3308 3.7742 11.2684 3.79861 11.2142 3.82031C11.1599 3.84201 11.1274 3.86372 11.1165 3.88542C11.084 3.92882 11.084 4.00477 11.1165 4.11328C11.1491 4.22179 11.1382 4.29774 11.084 4.34115C11.0297 4.28689 10.9809 4.19195 10.9375 4.05631C10.8941 3.92068 10.8561 3.83116 10.8236 3.78776C10.8995 3.88542 10.7639 3.91797 10.4167 3.88542L10.2539 3.86914C10.2105 3.86914 10.1237 3.87999 9.99349 3.90169C9.86328 3.92339 9.75206 3.92882 9.65983 3.91797C9.5676 3.90712 9.49436 3.86372 9.4401 3.78776C9.3967 3.70095 9.3967 3.59245 9.4401 3.46224C9.45095 3.41884 9.47266 3.40799 9.50521 3.42969C9.46181 3.39714 9.40213 3.34559 9.32617 3.27506C9.25022 3.20454 9.19596 3.15842 9.16341 3.13672C8.66428 3.29948 8.1543 3.52192 7.63346 3.80404C7.69857 3.81489 7.76367 3.80946 7.82878 3.78776C7.88303 3.76606 7.95356 3.73079 8.04036 3.68197C8.12717 3.63314 8.18142 3.6033 8.20312 3.59245C8.57205 3.44054 8.79991 3.40256 8.88672 3.47852L8.9681 3.39714C9.12001 3.57075 9.22852 3.70638 9.29362 3.80404C9.21766 3.76063 9.0549 3.75521 8.80534 3.78776C8.58832 3.85286 8.46897 3.91797 8.44727 3.98307C8.52322 4.11328 8.55035 4.21094 8.52865 4.27604C8.48524 4.24349 8.42285 4.18924 8.34147 4.11328C8.26009 4.03733 8.18142 3.97765 8.10547 3.93424C8.02951 3.89084 7.94813 3.86372 7.86133 3.85286C7.68772 3.85286 7.56836 3.85829 7.50325 3.86914C5.91905 4.7372 4.6441 5.94162 3.67839 7.48242C3.75434 7.55838 3.81944 7.60178 3.8737 7.61263C3.9171 7.62348 3.94423 7.67231 3.95508 7.75911C3.96593 7.84592 3.97949 7.9056 3.99577 7.93815C4.01204 7.9707 4.07444 7.95443 4.18294 7.88932C4.2806 7.97613 4.29688 8.07921 4.23177 8.19857C4.24262 8.18772 4.48134 8.3342 4.94792 8.63802C5.15408 8.82248 5.26801 8.93641 5.28971 8.97982C5.32227 9.09918 5.26801 9.19683 5.12695 9.27279C5.1161 9.25108 5.06727 9.20226 4.98047 9.1263C4.89366 9.05035 4.84483 9.02865 4.83398 9.0612C4.80143 9.11545 4.80414 9.21582 4.84212 9.3623C4.8801 9.50879 4.93707 9.57661 5.01302 9.56575C4.93707 9.56575 4.88552 9.65256 4.8584 9.82617C4.83127 9.99978 4.81771 10.1924 4.81771 10.404C4.81771 10.6156 4.81228 10.7431 4.80143 10.7865L4.83398 10.8027C4.80143 10.9329 4.83127 11.1201 4.9235 11.3643C5.01573 11.6084 5.13238 11.7142 5.27344 11.6816C5.13238 11.7142 5.24089 11.9475 5.59896 12.3815C5.66406 12.4683 5.70747 12.5171 5.72917 12.528C5.76172 12.5497 5.82682 12.5904 5.92448 12.6501C6.02214 12.7097 6.10352 12.764 6.16862 12.8128C6.23372 12.8617 6.28798 12.9186 6.33138 12.9837C6.37478 13.038 6.42904 13.16 6.49414 13.3499C6.55924 13.5398 6.6352 13.6673 6.722 13.7324C6.7003 13.7975 6.75184 13.906 6.87663 14.0579C7.00141 14.2099 7.05838 14.3346 7.04753 14.4323C7.03667 14.4323 7.02311 14.4377 7.00684 14.4486C6.99056 14.4594 6.977 14.4648 6.96615 14.4648C6.9987 14.5408 7.08279 14.6168 7.21842 14.6927C7.35406 14.7687 7.43815 14.8392 7.4707 14.9043C7.48155 14.9368 7.4924 14.9911 7.50325 15.0671C7.51411 15.143 7.53038 15.2027 7.55208 15.2461C7.57378 15.2895 7.61719 15.3003 7.68229 15.2786C7.70399 15.0616 7.57378 14.7253 7.29167 14.2695C7.12891 13.9983 7.03667 13.8409 7.01497 13.7975C6.98242 13.7433 6.95258 13.6592 6.92546 13.5452C6.89833 13.4313 6.87391 13.3526 6.85221 13.3092C6.87391 13.3092 6.90647 13.3174 6.94987 13.3337C6.99327 13.3499 7.03939 13.3689 7.08822 13.3906C7.13704 13.4123 7.17773 13.434 7.21029 13.4557C7.24284 13.4774 7.25369 13.4937 7.24284 13.5046C7.21029 13.5805 7.22114 13.6755 7.27539 13.7894C7.32964 13.9033 7.39475 14.0037 7.4707 14.0905C7.54666 14.1773 7.63889 14.2804 7.7474 14.3997C7.8559 14.5191 7.92101 14.5896 7.94271 14.6113C8.00781 14.6764 8.08377 14.7822 8.17057 14.9287C8.25738 15.0752 8.25738 15.1484 8.17057 15.1484C8.26823 15.1484 8.37674 15.2054 8.49609 15.3193C8.61545 15.4333 8.70768 15.5391 8.77279 15.6367C8.82704 15.7235 8.87044 15.8646 8.90299 16.0599C8.93555 16.2552 8.96267 16.3854 8.98438 16.4505C9.00608 16.5265 9.05219 16.5997 9.12272 16.6702C9.19325 16.7408 9.26107 16.7923 9.32617 16.8249L9.58659 16.9551L9.79818 17.069C9.85243 17.0907 9.9528 17.1477 10.0993 17.2399C10.2458 17.3321 10.3624 17.3945 10.4492 17.4271C10.5577 17.4705 10.6445 17.4922 10.7096 17.4922C10.7747 17.4922 10.8534 17.4786 10.9456 17.4515C11.0379 17.4244 11.1111 17.4054 11.1654 17.3945C11.3281 17.3728 11.4855 17.4542 11.6374 17.6387C11.7893 17.8231 11.9032 17.9371 11.9792 17.9805C12.3698 18.1866 12.6682 18.2463 12.8743 18.1595C12.8526 18.1704 12.8554 18.211 12.8825 18.2816C12.9096 18.3521 12.953 18.4362 13.0127 18.5339C13.0724 18.6315 13.1212 18.7102 13.1592 18.7699C13.1972 18.8295 13.227 18.8757 13.2487 18.9082C13.303 18.9733 13.4006 19.0547 13.5417 19.1523C13.6827 19.25 13.7804 19.3314 13.8346 19.3965C13.8997 19.3531 13.9377 19.3043 13.9486 19.25C13.916 19.3368 13.954 19.4453 14.0625 19.5755C14.171 19.7057 14.2687 19.76 14.3555 19.7383C14.5074 19.7057 14.5833 19.5321 14.5833 19.2174C14.247 19.3802 13.9811 19.2826 13.7858 18.9245C13.7858 18.9136 13.7722 18.8838 13.7451 18.835C13.718 18.7861 13.6963 18.74 13.68 18.6966C13.6637 18.6532 13.6502 18.6071 13.6393 18.5583C13.6285 18.5094 13.6285 18.4688 13.6393 18.4362C13.6502 18.4036 13.6773 18.3874 13.7207 18.3874C13.8184 18.3874 13.8726 18.3684 13.8835 18.3304C13.8943 18.2924 13.8835 18.2246 13.8509 18.127C13.8184 18.0293 13.7967 17.9588 13.7858 17.9154C13.775 17.8286 13.7153 17.7201 13.6068 17.5898C13.4983 17.4596 13.4332 17.3783 13.4115 17.3457C13.3572 17.4434 13.2704 17.4868 13.151 17.4759C13.0317 17.4651 12.9449 17.4162 12.8906 17.3294C12.8906 17.3403 12.8825 17.3701 12.8662 17.4189C12.8499 17.4678 12.8418 17.503 12.8418 17.5247C12.7007 17.5247 12.6194 17.5193 12.5977 17.5085C12.6085 17.4759 12.6221 17.381 12.6383 17.2236C12.6546 17.0663 12.6736 16.9442 12.6953 16.8574C12.7062 16.814 12.736 16.7489 12.7848 16.6621C12.8337 16.5753 12.8743 16.4966 12.9069 16.4261C12.9395 16.3556 12.9612 16.2878 12.972 16.2227C12.9829 16.1576 12.9584 16.106 12.8988 16.068C12.8391 16.0301 12.7441 16.0165 12.6139 16.0273C12.4078 16.0382 12.2667 16.1467 12.1908 16.3529C12.1799 16.3854 12.1636 16.4424 12.1419 16.5238C12.1202 16.6051 12.0931 16.6675 12.0605 16.7109C12.028 16.7543 11.9792 16.7923 11.9141 16.8249C11.8381 16.8574 11.7079 16.8683 11.5234 16.8574C11.339 16.8466 11.2088 16.8194 11.1328 16.776C10.9918 16.6892 10.8697 16.5319 10.7666 16.304C10.6635 16.0762 10.612 15.8754 10.612 15.7018C10.612 15.5933 10.6255 15.4495 10.6527 15.2705C10.6798 15.0915 10.6961 14.9558 10.7015 14.8636C10.7069 14.7714 10.6771 14.6385 10.612 14.4648C10.6445 14.4431 10.6934 14.3916 10.7585 14.3102C10.8236 14.2288 10.8778 14.1719 10.9212 14.1393C10.9429 14.1285 10.9673 14.1203 10.9945 14.1149C11.0216 14.1095 11.046 14.1095 11.0677 14.1149C11.0894 14.1203 11.1111 14.1122 11.1328 14.0905C11.1545 14.0688 11.1708 14.0362 11.1816 13.9928C11.1708 13.982 11.1491 13.9657 11.1165 13.944C11.084 13.9115 11.0623 13.8952 11.0514 13.8952C11.1274 13.9277 11.282 13.9196 11.5153 13.8708C11.7486 13.8219 11.8978 13.8301 11.9629 13.8952C12.1257 14.0145 12.245 14.0037 12.321 13.8626C12.321 13.8518 12.3074 13.8002 12.2803 13.708C12.2531 13.6158 12.2504 13.5425 12.2721 13.4883C12.3264 13.7812 12.4837 13.8301 12.7441 13.6348C12.7767 13.6673 12.8608 13.6944 12.9964 13.7161C13.1321 13.7378 13.227 13.765 13.2812 13.7975C13.3138 13.8192 13.3518 13.8491 13.3952 13.887C13.4386 13.925 13.4684 13.9494 13.4847 13.9603C13.501 13.9711 13.5281 13.9684 13.5661 13.9521C13.6041 13.9359 13.6502 13.9006 13.7044 13.8464C13.8129 13.9983 13.878 14.1285 13.8997 14.237C14.0191 14.671 14.1222 14.9097 14.209 14.9531C14.2849 14.9857 14.3446 14.9965 14.388 14.9857C14.4314 14.9748 14.4558 14.9233 14.4613 14.8311C14.4667 14.7388 14.4667 14.6629 14.4613 14.6032C14.4558 14.5435 14.4477 14.4757 14.4368 14.3997L14.4206 14.2695V13.9766L14.4043 13.8464C14.2415 13.8138 14.1412 13.7487 14.1032 13.651C14.0652 13.5534 14.0733 13.453 14.1276 13.3499C14.1819 13.2469 14.2632 13.1465 14.3717 13.0488C14.3826 13.038 14.426 13.019 14.502 12.9919C14.5779 12.9647 14.662 12.9295 14.7542 12.8861C14.8465 12.8427 14.9143 12.7993 14.9577 12.7559C15.1855 12.5497 15.2669 12.3598 15.2018 12.1862C15.2778 12.1862 15.3375 12.1374 15.3809 12.0397C15.37 12.0397 15.3429 12.0234 15.2995 11.9909C15.2561 11.9583 15.2154 11.9312 15.1774 11.9095C15.1394 11.8878 15.115 11.877 15.1042 11.877C15.2018 11.8227 15.2127 11.7359 15.1367 11.6165C15.191 11.584 15.2317 11.5243 15.2588 11.4375C15.2859 11.3507 15.3266 11.2964 15.3809 11.2747C15.4785 11.4049 15.5924 11.4158 15.7227 11.3073C15.8095 11.2205 15.8149 11.1337 15.7389 11.0469C15.7932 10.9709 15.9044 10.914 16.0726 10.876C16.2408 10.838 16.3411 10.7865 16.3737 10.7214C16.4497 10.7431 16.4931 10.7322 16.5039 10.6888C16.5148 10.6454 16.5202 10.5803 16.5202 10.4935C16.5202 10.4067 16.5365 10.3416 16.569 10.2982C16.6124 10.2439 16.6938 10.1951 16.8132 10.1517C16.9325 10.1083 17.003 10.0812 17.0247 10.0703L17.3014 9.89128C17.334 9.84787 17.334 9.82617 17.3014 9.82617C17.4967 9.84787 17.6649 9.78819 17.806 9.64713C17.9145 9.52778 17.8819 9.41927 17.7083 9.32161C17.7409 9.25651 17.7246 9.20497 17.6595 9.16699C17.5944 9.12901 17.513 9.09918 17.4154 9.07747C17.4479 9.06662 17.5103 9.06391 17.6025 9.06934C17.6948 9.07476 17.7517 9.06662 17.7734 9.04492C17.9362 8.93641 17.8982 8.84961 17.6595 8.7845C17.475 8.73025 17.2418 8.79536 16.9596 8.97982ZM14.3066 23.2539C16.5419 22.8633 18.4462 21.8379 20.0195 20.1777C19.987 20.1452 19.9192 20.1208 19.8161 20.1045C19.713 20.0882 19.6452 20.0692 19.6126 20.0475C19.4173 19.9716 19.2871 19.9282 19.222 19.9173C19.2329 19.8414 19.2193 19.7708 19.1813 19.7057C19.1433 19.6406 19.0999 19.5918 19.0511 19.5592C19.0023 19.5267 18.9345 19.4833 18.8477 19.429C18.7609 19.3748 18.7012 19.3368 18.6686 19.3151C18.6469 19.2934 18.6089 19.2609 18.5547 19.2174C18.5004 19.174 18.4625 19.1442 18.4408 19.1279C18.4191 19.1117 18.3784 19.0872 18.3187 19.0547C18.259 19.0221 18.2129 19.0113 18.1803 19.0221C18.1478 19.033 18.0935 19.0384 18.0176 19.0384L17.9688 19.0547C17.9362 19.0655 17.9064 19.0791 17.8792 19.0954C17.8521 19.1117 17.8223 19.1279 17.7897 19.1442C17.7572 19.1605 17.7355 19.1768 17.7246 19.193C17.7138 19.2093 17.7138 19.2229 17.7246 19.2337C17.4967 19.0493 17.3014 18.9299 17.1387 18.8757C17.0844 18.8648 17.0247 18.835 16.9596 18.7861C16.8945 18.7373 16.8376 18.6993 16.7887 18.6722C16.7399 18.6451 16.6857 18.6369 16.626 18.6478C16.5663 18.6586 16.5039 18.6966 16.4388 18.7617C16.3845 18.816 16.352 18.8974 16.3411 19.0059C16.3303 19.1144 16.3194 19.1849 16.3086 19.2174C16.2326 19.1632 16.2326 19.0683 16.3086 18.9326C16.3845 18.797 16.3954 18.6966 16.3411 18.6315C16.3086 18.5664 16.2516 18.542 16.1702 18.5583C16.0889 18.5745 16.0238 18.599 15.9749 18.6315C15.9261 18.6641 15.8637 18.7102 15.7878 18.7699C15.7118 18.8295 15.663 18.8648 15.6413 18.8757C15.6196 18.8865 15.5735 18.9163 15.5029 18.9652C15.4324 19.014 15.3863 19.0547 15.3646 19.0872C15.332 19.1306 15.2995 19.1957 15.2669 19.2826C15.2344 19.3694 15.2072 19.429 15.1855 19.4616C15.1638 19.4182 15.1015 19.3829 14.9984 19.3558C14.8953 19.3287 14.8437 19.2988 14.8437 19.2663C14.8655 19.3748 14.8872 19.5647 14.9089 19.8359C14.9306 20.1072 14.9577 20.3134 14.9902 20.4544C15.0662 20.7908 15.0011 21.0512 14.7949 21.2357C14.502 21.5069 14.3446 21.724 14.3229 21.8867C14.2795 22.1254 14.3446 22.2665 14.5182 22.3099C14.5182 22.3858 14.4748 22.4971 14.388 22.6436C14.3012 22.79 14.2632 22.9067 14.2741 22.9935C14.2741 23.0586 14.2849 23.1454 14.3066 23.2539Z" fill="#B3B3B3"/>
</svg>
