<svg width="21" height="18" viewBox="0 0 21 18" fill="none" xmlns="http://www.w3.org/2000/svg">
<path d="M20.9168 5.46666V13.9479C20.9169 14.8126 20.586 15.6446 19.9922 16.2732C19.3983 16.9017 18.5864 17.2792 17.7231 17.3281L17.5314 17.3333H3.46891C2.60419 17.3334 1.77222 17.0025 1.14367 16.4087C0.515128 15.8148 0.137661 15.0029 0.0887045 14.1396L0.0834961 13.9479V5.46666L10.1377 10.7333C10.2495 10.7919 10.3739 10.8225 10.5002 10.8225C10.6264 10.8225 10.7508 10.7919 10.8627 10.7333L20.9168 5.46666ZM3.46891 0.666664H17.5314C18.3706 0.666563 19.1798 0.978118 19.8023 1.5409C20.4247 2.10368 20.816 2.87758 20.9002 3.7125L10.5002 9.16041L0.100163 3.7125C0.180916 2.91074 0.545006 2.16408 1.12699 1.60673C1.70896 1.04938 2.47066 0.717901 3.27516 0.671873L3.46891 0.666664H17.5314H3.46891Z" fill="#B3B3B3"/>
</svg>
