<svg xmlns="http://www.w3.org/2000/svg" width="21" height="22" fill="none" viewBox="0 0 21 22"><path fill="#B3B3B3" d="M19.6211 4.12012L17.021 1.52246C16.8376 1.33824 16.6196 1.19208 16.3795 1.09236C16.1394 0.992644 15.882 0.941344 15.6221 0.941406C15.0923 0.941406 14.5942 1.14893 14.2207 1.52246L11.4229 4.32031C11.2386 4.50373 11.0925 4.72173 10.9928 4.9618C10.893 5.20187 10.8417 5.45928 10.8418 5.71924C10.8418 6.24902 11.0493 6.74707 11.4229 7.12061L13.4688 9.1665C12.9899 10.2221 12.324 11.1823 11.5034 12.001C10.6849 12.8236 9.72468 13.4918 8.66895 13.9736L6.62305 11.9277C6.43964 11.7435 6.22163 11.5973 5.98156 11.4976C5.74149 11.3979 5.48408 11.3466 5.22412 11.3467C4.69434 11.3467 4.19629 11.5542 3.82276 11.9277L1.02246 14.7231C0.838016 14.9069 0.691725 15.1253 0.592004 15.3658C0.492284 15.6063 0.441104 15.8642 0.441408 16.1245C0.441408 16.6543 0.648927 17.1523 1.02246 17.5259L3.61768 20.1211C4.21338 20.7192 5.03613 21.0586 5.88086 21.0586C6.05908 21.0586 6.22998 21.0439 6.39844 21.0146C9.68946 20.4727 12.9536 18.7222 15.5879 16.0903C18.2197 13.4609 19.9678 10.1992 20.5171 6.89844C20.6831 5.89014 20.3486 4.85254 19.6211 4.12012Z"/></svg>