<svg width="23" height="16" viewBox="0 0 23 16" fill="none" xmlns="http://www.w3.org/2000/svg">
<path d="M11.5 0.0214849C8.10156 0.0166021 4.70801 0.587891 1.31641 1.75C1.31641 1.75 0.834473 2.85352 0.438477 3.7666C0.354949 3.95653 0.297621 4.15693 0.268066 4.36231C2.63867 3.46387 5.01074 2.84863 7.37891 2.50684C7.59863 2.07715 8.04785 1.79395 8.5459 1.79395H9.39062C9.77637 1.79395 10.1279 1.95996 10.3721 2.22852C11.124 2.19922 11.876 2.19434 12.6377 2.22363C12.877 1.95508 13.2285 1.79395 13.6045 1.79395H14.4492C14.9424 1.79395 15.3818 2.06738 15.6064 2.48242C17.9844 2.80469 20.3525 3.42969 22.7305 4.35254C22.6963 4.15723 22.6426 3.95215 22.5596 3.7666C22.1641 2.85352 21.6807 1.75 21.6807 1.75C18.2871 0.607423 14.8936 0.0249029 11.5 0.0214849ZM8.5459 2.63867C8.31641 2.63867 8.11621 2.80469 8.07715 3.03418L7.75 5.00684C7.15918 5.11426 6.58301 5.25098 6.02637 5.41699C5.54785 5.56348 5.16699 5.92481 4.99121 6.38867C4.31738 8.19531 2.6123 12.7656 2.6123 12.7656H20.3867C20.3867 12.7656 18.6875 8.2002 18.0088 6.38867C17.8379 5.92481 17.4521 5.55859 16.9736 5.41699C16.417 5.25098 15.8408 5.11426 15.25 5.00684L14.918 3.03418C14.8789 2.80469 14.6836 2.63867 14.4492 2.63867H13.6045C13.3799 2.63867 13.1797 2.79492 13.1406 3.01953L13.0332 3.53711H9.96191L9.85449 3.01953C9.81543 2.79492 9.62012 2.63867 9.39062 2.63867H8.5459ZM16.5439 3.4834L16.4121 4.3916C16.6855 4.45996 16.9541 4.52832 17.2129 4.61133C17.8965 4.91406 18.4678 5.37793 18.7314 5.93945L21.8955 6.69629C22.208 6.21777 22.5596 5.7832 22.6914 5.24121C20.6406 4.43066 18.5947 3.83984 16.5439 3.4834ZM6.46094 3.50781C4.41016 3.87402 2.35889 4.45508 0.307617 5.24609C0.456543 5.81738 0.776367 6.20313 1.104 6.69629L4.26855 5.93945C4.55664 5.30469 5.1084 4.81641 5.78223 4.61133C6.05078 4.5332 6.31934 4.45996 6.58789 4.3916L6.46094 3.50781ZM11.5 5.13379C13.6826 5.13379 15.4551 6.64258 15.4551 8.50293C15.4551 10.3633 13.6826 11.8672 11.5 11.8672C9.31738 11.8672 7.54004 10.3633 7.54004 8.50293C7.54004 6.64258 9.31738 5.13379 11.5 5.13379ZM11.5 5.99316C10.0303 5.99316 8.83887 7.00879 8.83887 8.25879C8.83887 9.50879 10.0303 10.5244 11.5 10.5244C12.9697 10.5244 14.1562 9.50879 14.1562 8.25879C14.1562 7.00879 12.9697 5.99316 11.5 5.99316ZM2.61182 13.8838L3.67432 15.9785H19.3223L20.3818 13.8838H2.61182Z" fill="#B3B3B3"/>
</svg>
